<svg width="973" height="640" viewBox="0 0 973 640" fill="none" xmlns="http://www.w3.org/2000/svg">
<g clip-path="url(#clip0_1_2)">
<path d="M603.057 274C601.937 279.89 596.057 300.985 603.057 300.948C601.744 302.261 596.057 307.948 603.057 300.948C604.369 299.636 598.109 303.001 603.057 300.948C601.004 305.896 601.006 304.04 601.004 305.896V368.016C600.344 369.246 599.674 370.466 599.004 371.686C595.544 377.986 591.944 384.216 588.264 390.366C528.257 490.322 444.564 573.966 344.574 633.916L350.494 620.556C348.324 620.406 346.144 620.256 343.974 620.106C296.724 616.876 249.314 613.296 203.174 602.676C154.904 591.566 107.684 572.296 69.8543 540.346C32.014 508.386 4.27421 462.746 0.424114 413.366C-0.859689 396.395 0.856654 379.331 5.49443 362.956C14.3641 331.436 33.7444 303.076 61.7044 286.296C105.624 259.946 162.914 265.316 209.214 287.236C255.504 309.146 293.184 345.416 329.974 381.056C292.829 317.358 241.112 263.375 179.064 223.536C158.504 210.376 136.684 198.656 119.204 181.606C101.734 164.566 88.8441 140.676 91.9344 116.466C95.4442 89.0057 117.934 68.1657 140.464 52.0957C149.464 45.6757 158.754 39.5857 168.334 33.9857C195.364 18.1457 224.604 6.19567 255.484 1.76567C297.314 -4.24433 342.494 4.87568 374.564 32.3957C410.694 63.4057 425.514 113.416 424.104 161.256C446.364 128.896 480.694 104.126 519.464 103.076C559.714 101.996 552.475 126.396 572.634 161.256C592.785 196.106 596.057 241.594 603.057 274Z" fill="#E6E6E6"/>
<path d="M379.486 413.992C400.606 411.925 420.115 409.51 440.581 403.074C460.419 396.836 479.508 386.392 493.63 369.34C508.819 350.999 517.018 327.18 522.803 303.469C526.029 290.249 528.679 276.844 531.18 263.434C533.893 248.885 536.304 234.271 538.412 219.594C542.609 190.377 545.605 160.988 547.4 131.427C547.617 127.839 547.816 124.249 547.997 120.659C548.109 118.444 545.009 118.451 544.897 120.659C543.422 149.797 540.769 178.822 536.937 207.734C533.156 236.139 528.318 264.421 522.18 292.317C516.98 315.95 510.248 339.951 496.911 359.624C484.405 378.072 466.342 390.128 446.839 397.336C426.993 404.67 406.068 407.599 385.329 409.776C382.785 410.043 382.031 410.298 379.486 410.547C377.514 410.74 377.496 414.187 379.486 413.992L379.486 413.992Z" fill="white"/>
<path d="M7.49144 365.508C37.2351 367.158 66.6762 372.346 95.1922 380.962C123.72 389.561 151.135 401.494 176.869 416.514C201.733 431.039 224.817 448.419 245.649 468.3C265.866 487.607 283.885 509.091 299.376 532.362C314.937 555.691 327.833 580.692 337.822 606.895C339.04 610.102 340.213 613.326 341.342 616.566C342.071 618.655 345.415 617.756 344.678 615.646C335.333 588.889 323.013 563.266 307.95 539.259C292.89 515.249 275.215 492.983 255.249 472.867C234.964 452.44 212.388 434.423 187.969 419.175C136.698 387.237 78.5825 367.917 18.3949 362.799C14.7643 362.495 11.1298 362.245 7.49148 362.048C5.26648 361.927 5.27331 365.387 7.49148 365.508L7.49144 365.508Z" fill="white"/>
<path d="M169.269 38.0416C188.287 44.0899 206.313 52.8986 222.77 64.1858C239.587 75.7981 254.925 89.4187 268.442 104.746C282.687 120.87 295.352 138.323 306.262 156.867C317.834 176.447 327.887 196.885 336.332 218.003C345.028 239.683 352.342 261.893 358.231 284.498C364.216 307.371 368.891 330.567 372.233 353.973C375.559 377.13 377.571 400.457 378.261 423.842C378.956 446.203 378.295 468.586 376.281 490.867C374.44 511.654 371.076 532.278 366.218 552.573C361.904 570.903 355.824 588.772 348.063 605.929C346.266 609.823 344.358 613.663 342.341 617.45C341.294 619.414 344.28 621.164 345.329 619.196C353.905 602.808 360.753 585.572 365.763 567.767C371.383 547.946 375.457 527.719 377.948 507.267C380.71 485.079 382.054 462.737 381.974 440.378C381.925 416.888 380.526 393.42 377.786 370.09C375.045 346.469 370.975 323.021 365.596 299.858C360.23 276.657 353.424 253.813 345.215 231.459C337.304 209.819 327.832 188.782 316.874 168.514C306.437 149.173 294.273 130.815 280.533 113.663C267.483 97.3315 252.585 82.5676 236.136 69.6664C220.275 57.2636 202.748 47.1537 184.071 39.6339C179.507 37.8172 174.879 36.1743 170.189 34.7051C168.06 34.0353 167.149 37.3746 169.269 38.0416H169.269Z" fill="white"/>
<path d="M374.504 639.896C511.195 639.896 622.004 635.419 622.004 629.896C622.004 624.373 511.195 619.896 374.504 619.896C237.814 619.896 127.004 624.373 127.004 629.896C127.004 635.419 237.814 639.896 374.504 639.896Z" fill="#E6E6E6"/>
</g>
<defs>
<clipPath id="clip0_1_2">
<rect width="972.004" height="639.896" fill="white"/>
</clipPath>
</defs>
</svg>
